<svg width="233" height="29" viewBox="0 0 233 29" fill="none" xmlns="http://www.w3.org/2000/svg">
<path d="M11.5238 7.89531H16.8272C16.8072 3.88788 13.7169 1.23621 8.77247 1.23621C3.9177 1.23621 0.488467 3.84801 0.518373 7.73581C0.508404 10.9258 2.72146 12.7002 6.3401 13.4778L8.37372 13.9164C10.6466 14.4148 11.4241 14.9831 11.4441 15.9102C11.4241 16.917 10.507 17.6248 8.73259 17.6248C6.60926 17.6248 5.3532 16.6279 5.26348 14.7538H0C0.0199374 19.8777 3.48905 22.1705 8.81234 22.1705C13.9861 22.1705 17.0864 19.9375 17.1063 15.9102C17.0864 12.7999 15.2322 10.6168 10.7263 9.6498L9.05159 9.29093C7.11766 8.88221 6.25038 8.31399 6.30023 7.33706C6.3102 6.43987 7.05785 5.78194 8.77247 5.78194C10.5668 5.78194 11.4142 6.56947 11.5238 7.89531Z" fill="#005FED"/>
<path d="M18.1716 21.9313H23.6743V17.5849L24.5017 16.5382L27.6219 21.9313H33.9221L28.559 13.3283L33.7626 6.61931H27.582L23.8737 11.7632H23.6743V1.51533H18.1716V21.9313Z" fill="#005FED"/>
<path d="M37.8335 27.6732C41.6814 27.6732 43.4857 25.7393 44.3331 23.2073L49.9155 6.61931H44.1337L41.6216 17.226H41.4621L38.9898 6.61931H33.2478L38.631 22.6091L38.5113 22.8883C38.1425 23.7356 37.0758 23.7057 35.7201 23.2272L34.5238 27.1349C35.3812 27.4739 36.5674 27.6732 37.8335 27.6732Z" fill="#005FED"/>
<path d="M104.185 21.1229C103.42 20.3579 102.99 19.3204 102.99 18.2385C102.99 17.3124 103.305 16.4139 103.884 15.6905C104.462 14.9672 105.269 14.4621 106.172 14.2582C106.017 13.5978 105.995 12.9132 106.108 12.2443C106.221 11.5755 106.466 10.9358 106.828 10.3627C107.191 9.78966 107.665 9.2947 108.221 8.90685C108.778 8.51898 109.406 8.24599 110.069 8.10386C110.732 7.96172 111.417 7.95329 112.084 8.07902C112.75 8.20478 113.385 8.4622 113.951 8.83623C114.517 9.21026 115.003 9.69338 115.379 10.2573C115.756 10.8213 116.017 11.4547 116.146 12.1206C116.82 12.1071 117.49 12.2274 118.117 12.4743C118.744 12.7213 119.315 13.0901 119.799 13.5594C120.283 14.0287 120.668 14.5893 120.934 15.2086C121.2 15.8279 121.34 16.4938 121.347 17.1677C121.354 17.8415 121.227 18.5101 120.973 19.1346C120.72 19.7591 120.346 20.3273 119.872 20.8062C119.397 21.2851 118.833 21.6652 118.211 21.9247C117.589 22.1841 116.922 22.3177 116.248 22.3177H107.07C105.988 22.3177 104.95 21.8879 104.185 21.1229Z" stroke="#005FED" stroke-width="2.03962" stroke-linecap="round" stroke-linejoin="round"/>
<path d="M108.187 15.7388C108.187 16.7242 108.622 17.6692 109.397 18.366C110.171 19.0628 111.221 19.4542 112.316 19.4542C113.41 19.4542 114.461 19.0628 115.235 18.366C116.009 17.6692 116.444 16.7242 116.444 15.7388L115.587 15.7388C115.587 16.5197 115.242 17.2685 114.629 17.8207C114.015 18.3728 113.183 18.683 112.316 18.683C111.448 18.683 110.616 18.3728 110.002 17.8207C109.389 17.2685 109.044 16.5197 109.044 15.7388L108.187 15.7388Z" fill="#005FED"/>
<path d="M58.1334 21.9312C64.3539 21.9312 68.3015 18.1032 68.3015 11.7232C68.3015 5.34325 64.3539 1.51526 58.0537 1.51526H50.2781V21.9312H58.1334ZM55.8207 17.226V6.22049H57.7745C60.9645 6.22049 62.719 7.45661 62.719 11.7232C62.719 15.9898 60.9645 17.226 57.934 17.226H55.8207Z" fill="#052452"/>
<path d="M69.8228 21.9312H75.3256V13.9562C75.3256 12.2017 76.5318 11.0453 78.1567 11.0453C78.7249 11.0453 79.642 11.1351 80.1903 11.3245V6.62921C79.7517 6.49962 79.2732 6.41987 78.7947 6.41987C77.1598 6.41987 75.8838 7.37686 75.3256 9.5301H75.1661V6.61924H69.8228V21.9312Z" fill="#052452"/>
<path d="M80.8717 21.9312H86.3745V6.61924H80.8717V21.9312Z" fill="#052452"/>
<path d="M103.487 6.61924H97.705L95.2328 16.7475H95.0733L92.601 6.61924H86.8192L91.963 21.9312H98.343L103.487 6.61924Z" fill="#052452"/>
<path d="M86.3346 2.51212C86.3346 3.89777 85.1184 5.02423 83.6231 5.02423C82.1278 5.02423 80.9116 3.89777 80.9116 2.51212C80.9116 1.12646 82.1278 0 83.6231 0C85.1184 0 86.3346 1.12646 86.3346 2.51212Z" fill="#005FED"/>
</svg>
