<svg width="248" height="182" viewBox="0 0 248 182" fill="none" xmlns="http://www.w3.org/2000/svg">
<g clip-path="url(#clip0)">
<path d="M230.392 182V161.333C230.392 161.333 238.46 175.985 230.392 182Z" fill="#F1F1F1"/>
<path d="M230.89 181.996L215.639 168.02C215.639 168.02 231.908 171.996 230.89 181.996Z" fill="#F1F1F1"/>
<path d="M165.003 127.409C164.969 127.031 165.019 126.649 165.148 126.292C165.278 125.935 165.484 125.611 165.753 125.342C166.022 125.073 166.347 124.866 166.704 124.736C167.062 124.606 167.443 124.556 167.823 124.589L170.572 119.323L174.185 120.211L170.198 127.592C170.1 128.224 169.773 128.798 169.279 129.206C168.786 129.614 168.159 129.826 167.519 129.804C166.879 129.781 166.269 129.525 165.805 129.084C165.341 128.642 165.056 128.046 165.003 127.409H165.003Z" fill="#FFB7B7"/>
<path d="M181.415 178.706L178.366 178.706L176.915 166.967L181.415 166.968L181.415 178.706Z" fill="#FFB7B7"/>
<path d="M182.192 181.656L172.361 181.656V181.532C172.361 180.519 172.765 179.547 173.482 178.831C174.2 178.115 175.173 177.712 176.188 177.712H176.188L182.192 177.712L182.192 181.656Z" fill="#2F2E41"/>
<path d="M205.936 176.433L202.994 177.233L198.5 166.289L202.842 165.107L205.936 176.433Z" fill="#FFB7B7"/>
<path d="M207.463 179.075L197.979 181.656L197.946 181.536C197.679 180.559 197.812 179.516 198.316 178.637C198.819 177.757 199.652 177.113 200.631 176.847L200.631 176.847L206.424 175.27L207.463 179.075Z" fill="#2F2E41"/>
<path d="M175.848 127.998L174.328 151.052L177.595 176.916L182.946 175.286L183.171 152.176L187.452 138.85L200.126 174.442L205.928 172.306L201.14 149.196L198.436 127.492L175.848 127.998Z" fill="#2F2E41"/>
<path d="M190.634 87.5164L181.623 88.8428L178.376 92.0476L177.369 103.563L177.995 113.763L175.385 131.749C175.385 131.749 181.947 128.113 187.033 132.665C192.119 137.217 199.236 133.469 199.382 130.441L190.634 87.5164Z" fill="#CBCBCB"/>
<path d="M186.058 101.958L186.058 101.945L190.535 87.3798L190.593 87.376C190.911 87.3553 198.416 86.9137 200.095 90.6129L200.103 90.6307L199.593 105.767L200.296 129.474L186.415 132.475L186.314 132.497L186.058 101.958Z" fill="#2F2E41"/>
<path d="M181.097 100.951L181.918 88.6036C176.078 88.9663 176.166 93.0998 176.173 93.28L176.109 111.75L174.939 131.509L179.192 131.191L181.097 100.951Z" fill="#2F2E41"/>
<path d="M167.927 123.419L173.113 111.407L176.732 104.773L178.621 116.74L172.061 126.563L167.927 123.419Z" fill="#2F2E41"/>
<path d="M189.357 118.999C189.436 118.628 189.596 118.278 189.826 117.975C190.055 117.672 190.348 117.423 190.685 117.245C191.021 117.067 191.392 116.965 191.772 116.946C192.152 116.927 192.532 116.992 192.884 117.135L197.068 112.913L200.258 114.825L194.266 120.704C193.986 121.279 193.504 121.732 192.912 121.976C192.32 122.22 191.658 122.239 191.053 122.028C190.448 121.818 189.941 121.394 189.628 120.836C189.316 120.277 189.219 119.624 189.357 118.999V118.999Z" fill="#FFB7B7"/>
<path d="M192.875 115.594L201.404 106.254L195.758 98.2119L196.339 94.2803L199.667 90.1771L199.731 90.2609C200.086 90.7191 208.421 101.528 208.66 105.62C208.9 109.727 196.92 120.117 196.41 120.557L196.339 120.618L192.875 115.594Z" fill="#2F2E41"/>
<path d="M185.434 86.5046C188.782 86.5046 191.497 83.7954 191.497 80.4534C191.497 77.1113 188.782 74.4021 185.434 74.4021C182.086 74.4021 179.372 77.1113 179.372 80.4534C179.372 83.7954 182.086 86.5046 185.434 86.5046Z" fill="#FFB7B7"/>
<path d="M191.136 75.6158L191.43 75.0253L189.951 74.2919C189.951 74.2919 188.32 71.6424 185.368 72.387C182.416 73.1315 181.088 73.5772 181.088 73.5772L179.613 74.318L180.353 75.0533L179.025 75.4989L179.912 75.939L178.88 76.5313L179.435 79.5677C179.435 79.5677 180.358 77.2647 182.133 78.1448C183.907 79.0248 187.153 77.6898 187.153 77.6898L189.973 83.1375C189.973 83.1375 190.555 81.2278 191.592 81.737C191.592 81.737 194.242 77.5245 191.136 75.6158Z" fill="#2F2E41"/>
<path d="M122.542 109.875L30.3564 135.254L0 25.3781L92.1861 0L122.542 109.875Z" fill="white"/>
<path d="M122.542 109.875L30.3564 135.254L0 25.3781L92.1861 0L122.542 109.875ZM31.5342 133.182L120.468 108.7L91.0083 2.0711L2.07482 26.5538L31.5342 133.182Z" fill="#F1F1F1"/>
<path d="M72.1243 49.2224L49.0161 55.5839C48.6902 55.6732 48.342 55.6298 48.048 55.4632C47.754 55.2967 47.5383 55.0205 47.448 54.6953L41.0751 31.6284C40.9856 31.3031 41.0291 30.9555 41.1959 30.662C41.3628 30.3686 41.6395 30.1532 41.9653 30.0631L65.0734 23.7016C65.3994 23.6123 65.7476 23.6556 66.0416 23.8222C66.3356 23.9888 66.5513 24.265 66.6416 24.5902L73.0145 47.657C73.104 47.9824 73.0605 48.33 72.8937 48.6234C72.7268 48.9169 72.4501 49.1323 72.1243 49.2224V49.2224ZM42.1008 30.5539C41.9054 30.608 41.7394 30.7372 41.6392 30.9133C41.5391 31.0893 41.513 31.2979 41.5667 31.4931L47.9397 54.5599C47.9938 54.7551 48.1233 54.9208 48.2996 55.0207C48.476 55.1207 48.685 55.1467 48.8805 55.0931L71.9887 48.7316C72.1842 48.6775 72.3502 48.5483 72.4503 48.3722C72.5504 48.1962 72.5765 47.9876 72.5228 47.7924L66.1499 24.7256C66.0958 24.5304 65.9663 24.3647 65.7899 24.2648C65.6135 24.1648 65.4046 24.1388 65.209 24.1924L42.1008 30.5539Z" fill="#E5E5E5"/>
<path d="M66.2664 53.8716L43.1583 60.2331C42.8649 60.3135 42.5515 60.2745 42.287 60.1245C42.0224 59.9746 41.8282 59.7261 41.7469 59.4334L35.374 36.3665C35.2935 36.0737 35.3326 35.7609 35.4828 35.4968C35.633 35.2327 35.882 35.0388 36.1752 34.9577L59.2833 28.5962C59.5767 28.5158 59.8901 28.5549 60.1547 28.7048C60.4192 28.8547 60.6134 29.1033 60.6947 29.396L67.0676 52.4628C67.1481 52.7556 67.109 53.0684 66.9588 53.3325C66.8087 53.5967 66.5596 53.7905 66.2664 53.8716V53.8716Z" fill="#536DFE"/>
<path d="M93.0362 57.0206L28.5503 74.7731L29.2375 77.2606L93.7234 59.5081L93.0362 57.0206Z" fill="#F1F1F1"/>
<path d="M94.8282 63.5063L30.3423 81.2588L31.0295 83.7463L95.5154 65.9938L94.8282 63.5063Z" fill="#F1F1F1"/>
<path d="M96.6199 69.9919L32.134 87.7444L32.8213 90.2319L97.3072 72.4794L96.6199 69.9919Z" fill="#F1F1F1"/>
<path d="M99.7737 81.4068L35.2878 99.1593L35.9751 101.647L100.461 83.8943L99.7737 81.4068Z" fill="#F1F1F1"/>
<path d="M101.565 87.8925L37.0796 105.645L37.7668 108.133L102.253 90.38L101.565 87.8925Z" fill="#F1F1F1"/>
<path d="M103.357 94.3781L38.8716 112.131L39.5588 114.618L104.045 96.8656L103.357 94.3781Z" fill="#F1F1F1"/>
<path d="M152.052 134.886H56.4243V20.9092H152.052V134.886Z" fill="white"/>
<path d="M152.052 134.886H56.4243V20.9092H152.052V134.886ZM58.1113 133.202H150.365V22.5932H58.1113V133.202Z" fill="#E5E5E5"/>
<path d="M134.641 69.9066H79.9668V72.487H134.641V69.9066Z" fill="#536DFE"/>
<path d="M134.641 76.6155H79.9668V79.1959H134.641V76.6155Z" fill="#536DFE"/>
<path d="M134.641 83.3245H79.9668V85.9048H134.641V83.3245Z" fill="#536DFE"/>
<path d="M75.522 73.2588C76.4537 73.2588 77.209 72.5048 77.209 71.5747C77.209 70.6447 76.4537 69.8907 75.522 69.8907C74.5903 69.8907 73.835 70.6447 73.835 71.5747C73.835 72.5048 74.5903 73.2588 75.522 73.2588Z" fill="#536DFE"/>
<path d="M134.641 40.9978H79.9668V43.5782H134.641V40.9978Z" fill="#E5E5E5"/>
<path d="M134.641 47.7068H79.9668V50.2872H134.641V47.7068Z" fill="#E5E5E5"/>
<path d="M134.641 54.4158H79.9668V56.9961H134.641V54.4158Z" fill="#E5E5E5"/>
<path d="M75.522 44.0694C76.4537 44.0694 77.209 43.3155 77.209 42.3854C77.209 41.4554 76.4537 40.7014 75.522 40.7014C74.5903 40.7014 73.835 41.4554 73.835 42.3854C73.835 43.3155 74.5903 44.0694 75.522 44.0694Z" fill="#E5E5E5"/>
<path d="M134.641 99.0959H79.9668V101.676H134.641V99.0959Z" fill="#E5E5E5"/>
<path d="M134.641 105.805H79.9668V108.385H134.641V105.805Z" fill="#E5E5E5"/>
<path d="M134.641 112.514H79.9668V115.094H134.641V112.514Z" fill="#E5E5E5"/>
<path d="M75.522 102.168C76.4537 102.168 77.209 101.414 77.209 100.484C77.209 99.5535 76.4537 98.7996 75.522 98.7996C74.5903 98.7996 73.835 99.5535 73.835 100.484C73.835 101.414 74.5903 102.168 75.522 102.168Z" fill="#E5E5E5"/>
<path d="M147.587 144.701C158.382 144.701 167.133 135.966 167.133 125.19C167.133 114.415 158.382 105.68 147.587 105.68C136.792 105.68 128.042 114.415 128.042 125.19C128.042 135.966 136.792 144.701 147.587 144.701Z" fill="#536DFE"/>
<path d="M153.003 123.946V120.213C153.003 119.502 152.864 118.799 152.592 118.143C152.32 117.486 151.921 116.89 151.418 116.388C150.915 115.885 150.318 115.487 149.661 115.215C149.003 114.943 148.299 114.803 147.587 114.803C146.876 114.803 146.171 114.943 145.514 115.215C144.857 115.487 144.26 115.885 143.757 116.388C143.254 116.89 142.855 117.486 142.583 118.143C142.311 118.799 142.172 119.502 142.172 120.213V123.946C141.448 123.978 140.765 124.288 140.264 124.811C139.763 125.334 139.484 126.029 139.483 126.752V135.574H155.692V126.752C155.691 126.029 155.412 125.334 154.911 124.811C154.41 124.288 153.727 123.978 153.003 123.946V123.946ZM147.587 116.71C148.518 116.711 149.409 117.081 150.067 117.737C150.725 118.394 151.095 119.284 151.096 120.213V123.939H144.079V120.213C144.08 119.284 144.45 118.394 145.108 117.737C145.765 117.081 146.657 116.711 147.587 116.71Z" fill="white"/>
<path d="M149.044 128.302C149.044 128.051 148.979 127.805 148.856 127.587C148.732 127.368 148.554 127.186 148.339 127.056C148.124 126.927 147.879 126.855 147.628 126.848C147.377 126.841 147.128 126.899 146.906 127.016C146.684 127.133 146.496 127.306 146.361 127.517C146.225 127.728 146.147 127.971 146.133 128.221C146.119 128.471 146.17 128.721 146.281 128.946C146.392 129.171 146.56 129.363 146.768 129.504V132.665H148.407V129.504C148.603 129.371 148.764 129.192 148.875 128.982C148.986 128.773 149.044 128.539 149.044 128.302V128.302Z" fill="#536DFE"/>
<path d="M247.714 181.884H138.671C138.595 181.884 138.523 181.854 138.469 181.8C138.415 181.747 138.385 181.674 138.385 181.598C138.385 181.522 138.415 181.45 138.469 181.396C138.523 181.343 138.595 181.312 138.671 181.312H247.714C247.79 181.312 247.862 181.343 247.916 181.396C247.97 181.45 248 181.522 248 181.598C248 181.674 247.97 181.747 247.916 181.8C247.862 181.854 247.79 181.884 247.714 181.884Z" fill="#CBCBCB"/>
</g>
<defs>
<clipPath id="clip0">
<rect width="248" height="182" fill="white"/>
</clipPath>
</defs>
</svg>
