<svg width="229" height="174" viewBox="0 0 229 174" fill="none" xmlns="http://www.w3.org/2000/svg">
<g clip-path="url(#clip0)">
<path d="M161.107 134.04C140.867 134.04 122.576 120.007 118.029 99.4576C113.819 80.4344 125.88 61.5352 144.915 57.3281C148.549 56.525 152.305 56.445 155.969 57.0927C159.634 57.7404 163.135 59.1031 166.272 61.1029C169.41 63.1028 172.122 65.7007 174.255 68.7483C176.388 71.7959 177.899 75.2335 178.703 78.8648C179.997 84.7452 178.905 90.8985 175.665 95.9748C172.425 101.051 167.303 104.636 161.422 105.943C157.359 106.824 153.117 106.299 149.392 104.453C145.668 102.606 142.682 99.5492 140.925 95.7831C140.91 95.7511 140.902 95.7165 140.9 95.6812C140.899 95.646 140.904 95.6107 140.916 95.5776C140.929 95.5445 140.947 95.5141 140.971 95.4882C140.995 95.4622 141.024 95.4413 141.056 95.4265C141.088 95.4118 141.123 95.4035 141.158 95.4022C141.193 95.4009 141.229 95.4065 141.262 95.4189C141.295 95.4312 141.325 95.4499 141.351 95.474C141.377 95.4981 141.398 95.527 141.412 95.5591C143.117 99.2145 146.015 102.182 149.63 103.974C153.246 105.766 157.363 106.275 161.307 105.419C167.049 104.144 172.05 100.643 175.213 95.6868C178.376 90.7302 179.443 84.7221 178.179 78.9805C176.587 71.7855 172.2 65.5172 165.984 61.5548C159.767 57.5923 152.23 56.2601 145.031 57.8514C136.02 59.8537 128.171 65.3466 123.207 73.1249C118.243 80.9032 116.569 90.3317 118.552 99.342C123.742 122.796 147.057 137.658 170.527 132.471C178.281 130.763 185.567 127.381 191.876 122.563C198.185 117.745 203.364 111.607 207.05 104.579C207.067 104.548 207.089 104.52 207.116 104.498C207.143 104.475 207.174 104.458 207.208 104.448C207.242 104.437 207.277 104.433 207.312 104.436C207.347 104.44 207.381 104.45 207.413 104.466C207.444 104.483 207.472 104.505 207.494 104.532C207.517 104.559 207.534 104.59 207.544 104.624C207.554 104.658 207.558 104.693 207.555 104.728C207.552 104.763 207.541 104.797 207.525 104.829C203.802 111.926 198.572 118.124 192.201 122.989C185.831 127.854 178.473 131.269 170.643 132.994C167.512 133.688 164.314 134.039 161.107 134.04V134.04Z" fill="#005FED"/>
<path d="M213.268 73.7271C213.202 73.727 213.138 73.7025 213.089 73.6583C213.04 73.6141 213.009 73.5534 213.002 73.4877C212.784 71.4625 212.454 69.4509 212.014 67.4621C205.013 35.8231 176.44 13.3149 144.075 13.9727C144.004 13.9741 143.935 13.9473 143.884 13.898C143.833 13.8488 143.803 13.7812 143.802 13.7102C143.8 13.6391 143.827 13.5704 143.877 13.5192C143.926 13.4679 143.993 13.4383 144.064 13.4369C159.95 13.1421 175.449 18.3498 187.93 28.1762C200.411 38.0026 209.105 51.8423 212.538 67.3465C212.982 69.3546 213.315 71.3858 213.535 73.4307C213.539 73.4656 213.536 73.501 213.526 73.5348C213.516 73.5685 213.499 73.6 213.477 73.6273C213.455 73.6547 213.428 73.6775 213.397 73.6943C213.366 73.7112 213.332 73.7218 213.297 73.7255C213.288 73.7266 213.278 73.7271 213.268 73.7271Z" fill="#005FED"/>
<path d="M65.4236 117.665C65.3626 117.665 65.3034 117.644 65.2559 117.606C65.2083 117.568 65.1753 117.515 65.1621 117.455C61.7881 102.26 62.6132 86.434 67.549 71.6717C72.4848 56.9094 81.3455 43.767 93.1822 33.6516C93.2089 33.6285 93.2399 33.6108 93.2734 33.5997C93.307 33.5886 93.3424 33.5842 93.3776 33.5868C93.4129 33.5894 93.4473 33.5989 93.4788 33.6149C93.5104 33.6308 93.5385 33.6528 93.5615 33.6796C93.5845 33.7064 93.6019 33.7375 93.6128 33.7711C93.6238 33.8047 93.628 33.8401 93.6251 33.8753C93.6223 33.9106 93.6126 33.9449 93.5964 33.9763C93.5803 34.0077 93.5581 34.0356 93.5312 34.0585C81.7683 44.1107 72.9628 57.1712 68.0577 71.8415C63.1526 86.5117 62.3326 102.239 65.6856 117.339C65.6943 117.379 65.6941 117.419 65.6849 117.458C65.6758 117.497 65.658 117.534 65.6329 117.565C65.6077 117.596 65.5758 117.622 65.5396 117.639C65.5034 117.656 65.4637 117.665 65.4236 117.665Z" fill="#005FED"/>
<path d="M139.512 43.1342H97.6927C96.4844 43.1329 95.326 42.6526 94.4717 41.7987C93.6173 40.9449 93.1367 39.7872 93.1354 38.5797V4.55454C93.1367 3.34702 93.6173 2.18934 94.4717 1.33549C95.326 0.481646 96.4844 0.00135936 97.6927 0H139.512C140.721 0.00135936 141.879 0.481646 142.733 1.33549C143.588 2.18934 144.068 3.34702 144.07 4.55454V38.5797C144.068 39.7872 143.588 40.9449 142.733 41.7987C141.879 42.6526 140.721 43.1329 139.512 43.1342V43.1342ZM97.6927 0.535829C96.6266 0.537034 95.6045 0.960821 94.8506 1.71422C94.0968 2.46761 93.6727 3.48908 93.6715 4.55454V38.5797C93.6727 39.6451 94.0968 40.6666 94.8506 41.42C95.6045 42.1734 96.6266 42.5972 97.6927 42.5984H139.512C140.579 42.5972 141.601 42.1734 142.355 41.42C143.108 40.6666 143.532 39.6451 143.534 38.5797V4.55454C143.532 3.48908 143.108 2.46761 142.355 1.71422C141.601 0.960821 140.579 0.537034 139.512 0.535829H97.6927Z" fill="#3F3D56"/>
<path d="M134.759 10.2177H113.653C113.468 10.2215 113.288 10.1547 113.15 10.0309C113.011 9.90714 112.925 9.73556 112.909 9.55087C112.904 9.45527 112.918 9.35962 112.951 9.26976C112.984 9.1799 113.036 9.09772 113.101 9.02823C113.167 8.95873 113.247 8.90339 113.335 8.86556C113.423 8.82774 113.517 8.80823 113.613 8.80823H135.098C135.806 9.42979 135.374 10.2177 134.759 10.2177L134.759 10.2177Z" fill="#CCCCCC"/>
<path d="M134.759 13.9177H113.653C113.468 13.9214 113.288 13.8547 113.15 13.7309C113.011 13.6071 112.925 13.4355 112.909 13.2508C112.904 13.1552 112.918 13.0596 112.951 12.9697C112.984 12.8799 113.036 12.7977 113.101 12.7282C113.167 12.6587 113.247 12.6033 113.335 12.5655C113.423 12.5277 113.517 12.5082 113.613 12.5082H135.098C135.806 13.1297 135.374 13.9177 134.759 13.9177H134.759Z" fill="#CCCCCC"/>
<path d="M109.091 16.0243H102.649C102.439 16.0241 102.237 15.9405 102.089 15.7918C101.94 15.6432 101.856 15.4417 101.856 15.2315V7.6348C101.856 7.42461 101.94 7.2231 102.089 7.07447C102.237 6.92585 102.439 6.84225 102.649 6.84204H109.091C109.301 6.84232 109.502 6.92594 109.651 7.07455C109.8 7.22316 109.883 7.42463 109.884 7.6348V15.2315C109.884 15.4417 109.8 15.6432 109.651 15.7918C109.502 15.9405 109.301 16.0241 109.091 16.0243V16.0243Z" fill="#005FED"/>
<path d="M134.698 21.4932H102.486C102.301 21.497 102.121 21.4302 101.983 21.3064C101.844 21.1827 101.758 21.0111 101.742 20.8264C101.737 20.7308 101.751 20.6351 101.784 20.5453C101.817 20.4554 101.869 20.3732 101.934 20.3037C102 20.2342 102.08 20.1789 102.168 20.1411C102.256 20.1033 102.35 20.0837 102.446 20.0837H135.037C135.744 20.7053 135.313 21.4932 134.698 21.4932V21.4932Z" fill="#CCCCCC"/>
<path d="M134.698 25.1942H102.486C102.301 25.1979 102.121 25.1312 101.983 25.0074C101.844 24.8836 101.758 24.712 101.742 24.5273C101.737 24.4317 101.751 24.3361 101.784 24.2462C101.817 24.1563 101.869 24.0742 101.934 24.0047C102 23.9352 102.08 23.8798 102.168 23.842C102.256 23.8042 102.35 23.7847 102.446 23.7847H135.037C135.744 24.4062 135.313 25.1942 134.698 25.1942V25.1942Z" fill="#CCCCCC"/>
<path d="M134.698 28.8926H102.486C102.301 28.8964 102.121 28.8296 101.983 28.7059C101.844 28.5821 101.758 28.4105 101.742 28.2258C101.737 28.1302 101.751 28.0345 101.784 27.9447C101.817 27.8548 101.869 27.7726 101.934 27.7032C102 27.6337 102.08 27.5783 102.168 27.5405C102.256 27.5027 102.35 27.4832 102.446 27.4832H135.037C135.744 28.1047 135.313 28.8927 134.698 28.8927V28.8926Z" fill="#CCCCCC"/>
<path d="M134.698 32.5934H102.486C102.301 32.5972 102.121 32.5304 101.983 32.4067C101.844 32.2829 101.758 32.1113 101.742 31.9266C101.737 31.831 101.751 31.7354 101.784 31.6455C101.817 31.5556 101.869 31.4735 101.934 31.404C102 31.3345 102.08 31.2791 102.168 31.2413C102.256 31.2035 102.35 31.184 102.446 31.184H135.037C135.744 31.8055 135.313 32.5935 134.698 32.5935V32.5934Z" fill="#CCCCCC"/>
<path d="M134.698 36.2923H102.486C102.301 36.2961 102.121 36.2293 101.983 36.1055C101.844 35.9817 101.758 35.8101 101.742 35.6255C101.737 35.5298 101.751 35.4342 101.784 35.3443C101.817 35.2545 101.869 35.1723 101.934 35.1028C102 35.0333 102.08 34.978 102.168 34.9401C102.256 34.9023 102.35 34.8828 102.446 34.8828H135.037C135.744 35.5044 135.313 36.2923 134.698 36.2923V36.2923Z" fill="#CCCCCC"/>
<path d="M225.431 104.972H195.138C194.192 104.971 193.285 104.595 192.616 103.926C191.946 103.257 191.57 102.351 191.569 101.405V76.7583C191.57 75.8126 191.946 74.9059 192.616 74.2372C193.285 73.5685 194.192 73.1924 195.138 73.1913H225.431C226.377 73.1923 227.284 73.5685 227.953 74.2372C228.623 74.9059 228.999 75.8126 229 76.7583V101.405C228.999 102.351 228.623 103.257 227.953 103.926C227.284 104.595 226.377 104.971 225.431 104.972V104.972ZM195.138 73.7271C194.334 73.728 193.563 74.0477 192.994 74.6159C192.426 75.1842 192.106 75.9547 192.105 76.7583V101.405C192.106 102.209 192.426 102.979 192.994 103.547C193.563 104.116 194.334 104.435 195.138 104.436H225.431C226.235 104.435 227.006 104.116 227.574 103.547C228.143 102.979 228.463 102.209 228.464 101.405V76.7583C228.463 75.9546 228.143 75.1842 227.574 74.6159C227.006 74.0476 226.235 73.728 225.431 73.7271L195.138 73.7271Z" fill="#3F3D56"/>
<path d="M221.988 80.8605H206.699C206.565 80.8632 206.435 80.8148 206.335 80.7252C206.235 80.6355 206.172 80.5112 206.16 80.3774C206.157 80.3082 206.167 80.2389 206.191 80.1738C206.215 80.1087 206.252 80.0492 206.3 79.9988C206.347 79.9485 206.405 79.9084 206.469 79.881C206.532 79.8536 206.601 79.8395 206.67 79.8395H222.233C222.746 80.2897 222.433 80.8604 221.987 80.8604L221.988 80.8605Z" fill="#CCCCCC"/>
<path d="M221.988 83.5405H206.699C206.565 83.5432 206.435 83.4949 206.335 83.4052C206.235 83.3155 206.172 83.1912 206.16 83.0575C206.157 82.9882 206.167 82.9189 206.191 82.8538C206.215 82.7887 206.252 82.7292 206.3 82.6789C206.347 82.6286 206.405 82.5885 206.469 82.5611C206.532 82.5337 206.601 82.5195 206.67 82.5195H222.233C222.746 82.9698 222.433 83.5405 221.987 83.5405L221.988 83.5405Z" fill="#CCCCCC"/>
<path d="M203.394 85.0665H198.729C198.576 85.0664 198.43 85.0058 198.322 84.8982C198.215 84.7905 198.154 84.6445 198.154 84.4923V78.9895C198.154 78.8373 198.215 78.6913 198.322 78.5836C198.43 78.476 198.576 78.4154 198.729 78.4153H203.394C203.547 78.4155 203.693 78.4761 203.8 78.5837C203.908 78.6914 203.969 78.8373 203.969 78.9895V84.4923C203.969 84.6445 203.908 84.7905 203.8 84.8982C203.693 85.0058 203.547 85.0664 203.394 85.0665V85.0665Z" fill="#005FED"/>
<path d="M221.943 89.028H198.611C198.476 89.0307 198.346 88.9823 198.246 88.8927C198.146 88.803 198.083 88.6787 198.072 88.5449C198.068 88.4757 198.078 88.4064 198.102 88.3413C198.126 88.2762 198.163 88.2167 198.211 88.1663C198.259 88.116 198.316 88.0759 198.38 88.0485C198.444 88.0211 198.512 88.007 198.582 88.007H222.189C222.702 88.4572 222.389 89.028 221.943 89.028V89.028Z" fill="#CCCCCC"/>
<path d="M221.943 91.7089H198.611C198.476 91.7116 198.346 91.6632 198.246 91.5736C198.146 91.4839 198.083 91.3596 198.072 91.2258C198.068 91.1566 198.078 91.0873 198.102 91.0222C198.126 90.9571 198.163 90.8976 198.211 90.8472C198.259 90.7969 198.316 90.7568 198.38 90.7294C198.444 90.702 198.512 90.6879 198.582 90.6879H222.189C222.702 91.1381 222.389 91.7088 221.943 91.7088V91.7089Z" fill="#CCCCCC"/>
<path d="M221.943 94.3879H198.611C198.476 94.3907 198.346 94.3423 198.246 94.2526C198.146 94.163 198.083 94.0387 198.072 93.9049C198.068 93.8356 198.078 93.7663 198.102 93.7013C198.126 93.6362 198.163 93.5766 198.211 93.5263C198.259 93.476 198.316 93.4359 198.38 93.4085C198.444 93.3811 198.512 93.3669 198.582 93.3669H222.189C222.702 93.8172 222.389 94.3879 221.943 94.3879V94.3879Z" fill="#CCCCCC"/>
<path d="M221.943 97.0686H198.611C198.476 97.0713 198.346 97.023 198.246 96.9333C198.146 96.8436 198.083 96.7193 198.072 96.5856C198.068 96.5163 198.078 96.447 198.102 96.3819C198.126 96.3168 198.163 96.2573 198.211 96.207C198.259 96.1566 198.316 96.1165 198.38 96.0891C198.444 96.0617 198.512 96.0476 198.582 96.0476H222.189C222.702 96.4978 222.389 97.0686 221.943 97.0686V97.0686Z" fill="#CCCCCC"/>
<path d="M221.943 99.7479H198.611C198.476 99.7506 198.346 99.7023 198.246 99.6126C198.146 99.5229 198.083 99.3986 198.072 99.2649C198.068 99.1956 198.078 99.1263 198.102 99.0612C198.126 98.9962 198.163 98.9366 198.211 98.8863C198.259 98.8359 198.316 98.7959 198.38 98.7685C198.444 98.7411 198.512 98.7269 198.582 98.7269H222.189C222.702 99.1772 222.389 99.7479 221.943 99.7479V99.7479Z" fill="#CCCCCC"/>
<path d="M150.992 96.039H131.786C131.16 96.0383 130.56 95.7895 130.118 95.3471C129.675 94.9048 129.426 94.305 129.425 93.6794V78.0538C129.426 77.4282 129.675 76.8284 130.118 76.3861C130.56 75.9437 131.16 75.6949 131.786 75.6942H150.992C151.618 75.6949 152.218 75.9437 152.66 76.3861C153.103 76.8284 153.352 77.4282 153.353 78.0538V93.6794C153.352 94.305 153.103 94.9048 152.66 95.3471C152.218 95.7895 151.618 96.0383 150.992 96.039V96.039ZM131.786 76.23C131.302 76.2306 130.839 76.4229 130.497 76.7648C130.154 77.1067 129.962 77.5703 129.961 78.0538V93.6794C129.962 94.1629 130.154 94.6265 130.497 94.9684C130.839 95.3103 131.302 95.5026 131.786 95.5031H150.992C151.475 95.5026 151.939 95.3103 152.281 94.9684C152.623 94.6265 152.816 94.1629 152.816 93.6794V78.0538C152.816 77.5703 152.623 77.1067 152.281 76.7648C151.939 76.4229 151.475 76.2306 150.992 76.23H131.786Z" fill="#3F3D56"/>
<path d="M147.957 87.5411H134.821C134.501 87.5411 134.194 87.4141 133.968 87.188C133.742 86.9619 133.615 86.6552 133.615 86.3355C133.615 86.0157 133.742 85.7091 133.968 85.483C134.194 85.2569 134.501 85.1299 134.821 85.1299H147.957C148.277 85.1299 148.584 85.2569 148.81 85.483C149.036 85.7091 149.163 86.0157 149.163 86.3355C149.163 86.6552 149.036 86.9619 148.81 87.188C148.584 87.4141 148.277 87.5411 147.957 87.5411V87.5411Z" fill="#005FED"/>
<path d="M145.276 82.5847H137.502C137.182 82.5847 136.875 82.4577 136.649 82.2316C136.423 82.0055 136.296 81.6988 136.296 81.3791C136.296 81.0593 136.423 80.7527 136.649 80.5266C136.875 80.3005 137.182 80.1735 137.502 80.1735H145.276C145.596 80.1735 145.903 80.3005 146.129 80.5266C146.355 80.7527 146.482 81.0593 146.482 81.3791C146.482 81.6988 146.355 82.0055 146.129 82.2316C145.903 82.4577 145.596 82.5847 145.276 82.5847Z" fill="#005FED"/>
<path d="M147.957 91.5598H134.821C134.501 91.5598 134.194 91.4328 133.968 91.2067C133.742 90.9806 133.615 90.6739 133.615 90.3542C133.615 90.0344 133.742 89.7278 133.968 89.5017C134.194 89.2756 134.501 89.1486 134.821 89.1486H147.957C148.277 89.1486 148.584 89.2756 148.81 89.5017C149.036 89.7278 149.163 90.0344 149.163 90.3542C149.163 90.6739 149.036 90.9806 148.81 91.2067C148.584 91.4328 148.277 91.5598 147.957 91.5598V91.5598Z" fill="#005FED"/>
<path d="M33.8841 126.885C33.6987 126.537 33.5917 126.153 33.5708 125.76C33.5499 125.367 33.6155 124.974 33.7631 124.608C33.9106 124.243 34.1365 123.915 34.4248 123.646C34.7131 123.378 35.0568 123.176 35.4317 123.054L35.6292 113.482L39.7277 116.306L38.9118 124.963C39.0741 125.606 38.9948 126.286 38.6889 126.875C38.383 127.463 37.8718 127.919 37.2521 128.156C36.6324 128.393 35.9472 128.394 35.3265 128.16C34.7057 127.926 34.1925 127.472 33.8841 126.885H33.8841Z" fill="#A0616A"/>
<path d="M38.4158 90.0279L34.4042 120.172L39.2336 120.354L43.2696 88.7102L42.3009 88.139C41.9324 87.9217 41.5158 87.799 41.0882 87.7819C40.6607 87.7647 40.2356 87.8536 39.8508 88.0407C39.466 88.2278 39.1336 88.5072 38.8832 88.8539C38.6328 89.2007 38.4722 89.604 38.4158 90.0279V90.0279Z" fill="#005FED"/>
<path d="M51.2197 170.809L54.506 170.809L56.0697 158.14L51.2189 158.14L51.2197 170.809Z" fill="#A0616A"/>
<path d="M60.8446 173.859L50.5154 173.859L50.5153 169.871L56.8536 169.871C57.912 169.87 58.9271 170.291 59.6756 171.039C60.424 171.787 60.8446 172.801 60.8446 173.859V173.859Z" fill="#2F2E41"/>
<path d="M23.8751 166.884L26.8575 168.264L33.6022 157.424L29.2004 155.387L23.8751 166.884Z" fill="#A0616A"/>
<path d="M31.3273 173.693L21.9538 169.356L23.6304 165.737L29.3823 168.398C30.3428 168.842 31.0873 169.65 31.452 170.643C31.8168 171.636 31.7719 172.733 31.3273 173.693V173.693V173.693Z" fill="#2F2E41"/>
<path d="M54.6651 168.132C54.6169 168.132 54.5689 168.13 54.5211 168.124L51.9209 167.818C51.6474 167.785 51.3934 167.66 51.2007 167.463C51.0081 167.266 50.8882 167.009 50.8609 166.735L47.7396 134.012C47.7314 133.926 47.6961 133.846 47.6387 133.782C47.5814 133.718 47.5051 133.674 47.421 133.657C47.3368 133.639 47.2494 133.649 47.1713 133.685C47.0933 133.721 47.0287 133.781 46.9873 133.856L29.621 165.3C29.4904 165.538 29.283 165.725 29.0326 165.83C28.7822 165.935 28.5035 165.953 28.242 165.879L25.321 165.068C25.1633 165.025 25.0162 164.949 24.8885 164.847C24.7609 164.745 24.6554 164.617 24.5786 164.473C24.5017 164.329 24.455 164.17 24.4414 164.007C24.4278 163.844 24.4475 163.68 24.4994 163.525C27.0433 155.918 39.7887 117.792 40.8784 114.283C42.1805 110.09 51.9003 108.438 52.7378 108.303L53.2189 107.822L53.3115 107.947C57.6017 113.719 59.6777 121.363 59.157 129.472L59.1568 129.475L55.8637 167.032C55.8374 167.332 55.6998 167.611 55.478 167.815C55.2562 168.018 54.9662 168.132 54.6651 168.132V168.132Z" fill="#2F2E41"/>
<path d="M40.9664 83.1631C44.6028 83.1631 47.5506 80.217 47.5506 76.5828C47.5506 72.9486 44.6028 70.0026 40.9664 70.0026C37.3301 70.0026 34.3822 72.9486 34.3822 76.5828C34.3822 80.217 37.3301 83.1631 40.9664 83.1631Z" fill="#A0616A"/>
<path d="M41.3024 113.275L37.3955 92.9236C37.0686 91.2045 37.4078 89.4254 38.3443 87.9468C39.2808 86.4681 40.7446 85.4005 42.4392 84.9601C43.4865 84.6879 44.5883 84.7063 45.6259 85.0132C46.6636 85.3202 47.5978 85.9041 48.3282 86.7021C50.3224 88.8777 52.8555 92.0438 53.5987 94.7727C54.2278 97.0891 55.9982 105.769 56.016 105.857L56.0301 105.926L55.9811 105.976C55.9718 105.986 55.0232 106.966 53.5468 108.189C52.6804 108.906 51.7949 109.572 50.9147 110.169C48.4435 111.836 41.7198 113.192 41.4348 113.249L41.3024 113.275Z" fill="#005FED"/>
<path opacity="0.2" d="M50.8395 110.058C51.8206 109.393 52.7107 108.707 53.4612 108.086C53.1905 104.083 47.2901 95.7026 44.8989 95.7026C44.8989 95.7026 44.3333 108.619 50.8395 110.058Z" fill="black"/>
<path d="M62.9844 120.57C62.614 120.436 62.2774 120.222 61.9986 119.944C61.7197 119.665 61.5053 119.329 61.3704 118.959C61.2355 118.589 61.1835 118.194 61.2179 117.802C61.2524 117.409 61.3725 117.029 61.5698 116.688L55.3079 109.443L60.2443 108.801L65.434 115.78C65.9851 116.149 66.3815 116.707 66.5482 117.349C66.7149 117.991 66.6401 118.672 66.3382 119.262C66.0363 119.853 65.5281 120.312 64.91 120.553C64.2919 120.794 63.6068 120.8 62.9845 120.57H62.9844Z" fill="#A0616A"/>
<path d="M45.4775 85.3947C45.7502 85.4003 46.0218 85.4314 46.2887 85.4875C46.8291 85.611 47.3304 85.8665 47.7476 86.2312C48.1649 86.5959 48.485 87.0584 48.6794 87.5772L56.4208 103.74L64.7312 112.581L60.576 115.93L47.4403 104.142L42.1924 89.8672C42.0249 89.3516 41.9824 88.8037 42.0686 88.2686C42.1547 87.7334 42.3671 87.2264 42.688 86.7895C43.0089 86.3526 43.4293 85.9982 43.9143 85.7557C44.3993 85.5131 44.9351 85.3894 45.4775 85.3947V85.3947Z" fill="#005FED"/>
<path d="M40.5768 83.1025C39.6397 81.7007 38.9002 79.7569 39.9319 78.4231C40.9504 77.1066 42.9591 77.3005 44.5188 76.718C46.6913 75.9065 47.9513 73.3558 47.5583 71.0715C47.1654 68.7872 45.3305 66.8935 43.1447 66.1187C40.9589 65.3439 38.494 65.5959 36.3535 66.4881C33.7185 67.5865 31.4581 69.7112 30.5103 72.4027C29.5625 75.0941 30.0692 78.3257 32.0355 80.3945C34.1436 82.6124 37.4521 83.2034 40.5128 83.1676" fill="#2F2E41"/>
<path d="M30.2373 75.3438C29.9691 76.8417 28.3249 77.6925 26.8138 77.8794C25.3027 78.0664 23.7395 77.8267 22.2685 78.2194C19.6751 78.9118 17.9646 81.4044 17.0231 83.9168C16.0816 86.4291 15.6641 89.1406 14.4409 91.5286C13.2176 93.9166 10.8458 96.0219 8.17078 95.7986C8.69482 97.1171 9.61317 98.242 10.8005 99.0197C11.9879 99.7974 13.3864 100.19 14.8053 100.144C16.2242 100.098 17.5943 99.6157 18.7287 98.7628C19.8632 97.9098 20.7067 96.7279 21.1441 95.3781C22.1268 92.3462 20.9988 88.7304 22.7173 86.0457C23.6683 84.5601 25.3104 83.6863 26.8938 82.9077C28.4772 82.1291 30.139 81.3299 31.2006 79.9211C32.2622 78.5123 32.4743 76.2874 31.1661 75.1038" fill="#2F2E41"/>
<path d="M0.319125 174H86.1822C86.2667 174 86.3477 173.966 86.4073 173.906C86.467 173.847 86.5005 173.766 86.5005 173.681C86.5005 173.597 86.467 173.516 86.4073 173.456C86.3477 173.396 86.2667 173.362 86.1822 173.362H0.319125C0.23463 173.362 0.153681 173.396 0.09402 173.456C0.0343593 173.516 0.000854492 173.597 0.000854492 173.681C0.000854492 173.766 0.0343593 173.847 0.09402 173.906C0.153681 173.966 0.23463 174 0.319125 174V174Z" fill="#3F3D56"/>
<path d="M70.7853 67.833C72.8581 67.833 74.5384 66.1537 74.5384 64.0822C74.5384 62.0107 72.8581 60.3314 70.7853 60.3314C68.7125 60.3314 67.0322 62.0107 67.0322 64.0822C67.0322 66.1537 68.7125 67.833 70.7853 67.833Z" fill="#FFDAB8"/>
<path d="M190.079 34.8795C192.152 34.8795 193.832 33.2002 193.832 31.1287C193.832 29.0572 192.152 27.3779 190.079 27.3779C188.006 27.3779 186.326 29.0572 186.326 31.1287C186.326 33.2002 188.006 34.8795 190.079 34.8795Z" fill="#FFDAB8"/>
<path d="M149.063 136.151C151.136 136.151 152.816 134.472 152.816 132.4C152.816 130.329 151.136 128.65 149.063 128.65C146.991 128.65 145.31 130.329 145.31 132.4C145.31 134.472 146.991 136.151 149.063 136.151Z" fill="#FFDAB8"/>
</g>
<defs>
<clipPath id="clip0">
<rect width="229" height="174" fill="white"/>
</clipPath>
</defs>
</svg>
