<svg width="270" height="142" viewBox="0 0 270 142" fill="none" xmlns="http://www.w3.org/2000/svg">
<g clip-path="url(#clip0)">
<path d="M269.426 103.507C268.012 112.511 263.63 121.25 256.399 126.78C249.282 132.227 240.164 134.162 231.362 135.826C220.806 137.824 210.22 139.65 199.605 141.304C198.101 141.544 196.595 141.776 195.088 142H133.262C133.2 141.917 133.134 141.83 133.071 141.742C132.971 141.596 132.87 141.45 132.772 141.304C132.717 141.22 132.661 141.133 132.606 141.046H171.386C172.486 141.045 173.541 140.607 174.32 139.828C175.098 139.049 175.536 137.993 175.538 136.891V85.0467C175.788 84.2601 176.021 83.4701 176.233 82.6696C177.222 78.9421 177.865 75.1311 178.155 71.2852C178.363 68.6053 178.426 65.9254 178.38 63.242C178.252 55.867 177.289 48.492 176.243 41.1692C176.167 40.6298 176.087 40.0868 176.011 39.5474C175.274 34.459 174.603 28.9217 177.164 24.4633C180.094 19.361 186.595 17.2345 192.45 17.7566C202.983 18.6997 211.854 26.7778 216.465 36.3106C221.073 45.84 222.105 56.6779 222.526 67.2584C222.748 72.8688 222.724 78.7298 221.942 84.3576C224.583 78.3086 227.226 72.2597 229.872 66.2108C231.282 62.9844 232.766 59.6537 235.379 57.294C240.842 52.3553 249.877 53.3507 255.711 57.8473C261.542 62.3475 264.739 69.458 266.865 76.5128C269.499 85.2381 270.844 94.5029 269.426 103.507Z" fill="#FFDAB8"/>
<path d="M246.127 54.6027C249.946 61.3785 251.699 69.1481 251.657 76.9015C251.598 84.5888 249.9 92.1747 246.677 99.1516C243.761 105.451 239.7 111.152 234.7 115.962C229.765 120.76 223.91 124.507 217.488 126.974C210.037 129.771 201.977 130.538 194.133 129.196C193.043 129.009 191.962 128.781 190.888 128.514C190.237 128.354 189.959 129.36 190.611 129.521C198.774 131.548 207.334 131.301 215.367 128.808C222.057 126.652 228.231 123.135 233.5 118.476C238.834 113.805 243.246 108.172 246.505 101.87C250.071 94.9708 252.152 87.3986 252.612 79.6431C253.067 71.7734 251.75 63.7634 248.352 56.6245C247.94 55.7594 247.499 54.9099 247.027 54.0757C246.954 53.9612 246.841 53.8793 246.709 53.8472C246.578 53.8151 246.439 53.8353 246.322 53.9037C246.206 53.972 246.12 54.0831 246.083 54.2136C246.047 54.344 246.062 54.4835 246.127 54.6027H246.127Z" fill="white"/>
<path d="M190.803 17.6183C195.038 25.4378 198.339 33.73 200.636 42.3232C205.235 59.5341 205.928 77.5582 202.663 95.0722C201.033 103.823 198.375 112.349 194.744 120.474C191.123 128.53 185.911 137.018 177.007 139.839C176.002 140.156 174.972 140.386 173.928 140.528C173.267 140.619 173.548 141.625 174.206 141.535C183.416 140.269 189.815 132.605 193.829 124.793C197.982 116.71 200.939 107.932 202.906 99.0698C206.803 81.3867 206.663 63.0505 202.496 45.4293C200.425 36.651 197.331 28.1471 193.277 20.0931C192.768 19.0844 192.243 18.0839 191.703 17.0914C191.382 16.5009 190.482 17.0273 190.803 17.6184V17.6183Z" fill="white"/>
<path d="M147.211 16.0999H84.8015C83.5348 16.1015 82.3204 16.6062 81.4247 17.5033C80.529 18.4004 80.0251 19.6167 80.0235 20.8854V52.2056H89.6282C90.3306 52.2037 91.022 52.3813 91.6367 52.7218C92.2515 53.0623 92.7693 53.5542 93.1412 54.1511L96.4702 59.4587L99.6533 64.5297L100.251 65.4833L103.893 71.2851L103.934 71.3513H151.989V20.8854C151.987 19.6167 151.483 18.4004 150.587 17.5033C149.692 16.6062 148.477 16.1015 147.211 16.0999V16.0999Z" fill="#CCCCCC"/>
<path d="M122.473 25.6744H91.5497C90.7299 25.6744 89.9437 26.0006 89.3641 26.5812C88.7844 27.1618 88.4588 27.9492 88.4588 28.7703C88.4588 29.5913 88.7844 30.3788 89.3641 30.9593C89.9437 31.5399 90.7299 31.8661 91.5497 31.8661H122.473C123.293 31.8661 124.079 31.5399 124.659 30.9593C125.238 30.3788 125.564 29.5913 125.564 28.7703C125.564 27.9492 125.238 27.1618 124.659 26.5812C124.079 26.0006 123.293 25.6744 122.473 25.6744Z" fill="white"/>
<path d="M139.621 40.8768H91.8312C90.9363 40.8768 90.0781 41.2329 89.4453 41.8667C88.8126 42.5004 88.4571 43.36 88.4571 44.2563C88.4571 45.1526 88.8126 46.0122 89.4453 46.6459C90.0781 47.2797 90.9363 47.6358 91.8312 47.6358H139.621C140.516 47.6358 141.375 47.2797 142.007 46.6459C142.64 46.0122 142.996 45.1526 142.996 44.2563C142.996 43.36 142.64 42.5004 142.007 41.8667C141.375 41.2329 140.516 40.8768 139.621 40.8768V40.8768Z" fill="white"/>
<path d="M142.672 54.6488C142.401 54.0678 141.97 53.5762 141.429 53.2317C140.889 52.8871 140.262 52.7038 139.621 52.7032H91.8312C91.7582 52.7032 91.6887 52.7067 91.6157 52.7102C92.2392 53.0514 92.7646 53.5476 93.1412 54.1511L96.4702 59.4587H139.621C140.189 59.4589 140.747 59.3155 141.245 59.0419C141.742 58.7682 142.162 58.3733 142.467 57.8935C142.771 57.4138 142.949 56.8648 142.985 56.2976C143.021 55.7304 142.914 55.1632 142.672 54.6488V54.6488Z" fill="white"/>
<path d="M142.961 67.4532C142.851 66.644 142.452 65.902 141.838 65.3646C141.224 64.8271 140.437 64.5305 139.621 64.5297H99.6533L100.251 65.4833L103.893 71.2851H139.621C140.324 71.2866 141.008 71.0661 141.578 70.6552C142.015 70.3429 142.372 69.9305 142.618 69.4522C142.864 68.9739 142.992 68.4437 142.992 67.9056C142.992 67.7543 142.982 67.6031 142.961 67.4532V67.4532Z" fill="white"/>
<path d="M181.108 43.0729L176.243 41.1691L151.989 31.6885L122.97 20.3459C121.789 19.8868 120.474 19.9154 119.314 20.4256C118.154 20.9358 117.243 21.8859 116.781 23.0675L115.766 25.6744L113.351 31.866L109.842 40.8768L107.208 47.6357L105.234 52.7032L102.6 59.4587L100.623 64.5296L100.567 64.6758L100.251 65.4832L103.893 71.2851L103.934 71.3512H171.386C172.005 71.3506 172.616 71.4892 173.175 71.7566C173.734 72.024 174.225 72.4136 174.614 72.8965L174.899 72.1726L178.38 63.2419L183.822 49.275C184.282 48.0919 184.254 46.7747 183.745 45.6121C183.236 44.4495 182.288 43.5364 181.108 43.0729V43.0729Z" fill="#005FED"/>
<path d="M154.588 42.9825L151.989 41.9662L125.781 31.7234C125.017 31.4272 124.167 31.4457 123.416 31.775C122.665 32.1043 122.075 32.7176 121.774 33.481C121.478 34.2468 121.497 35.099 121.826 35.851C122.156 36.6031 122.769 37.1938 123.533 37.4939L132.189 40.8769L142.895 45.0603L151.989 48.6173L152.34 48.753C153.103 49.05 153.953 49.0313 154.703 48.7011C155.453 48.3709 156.042 47.7561 156.339 46.9918C156.637 46.2274 156.62 45.3759 156.292 44.6243C155.963 43.8726 155.351 43.2821 154.588 42.9825V42.9825Z" fill="white"/>
<path d="M165.04 63.3915L151.989 58.2893L142.672 54.6487L137.696 52.7032L124.735 47.6357L120.523 45.9895C119.738 45.6823 118.866 45.6809 118.079 45.9856C117.293 46.2903 116.648 46.879 116.274 47.6357C116.232 47.7227 116.19 47.8132 116.155 47.9072C115.994 48.3204 115.916 48.7613 115.925 49.2048C115.934 49.6483 116.03 50.0856 116.208 50.4919C116.386 50.8981 116.642 51.2653 116.961 51.5725C117.281 51.8797 117.658 52.1208 118.07 52.2821L119.147 52.7032L136.425 59.4587L151.989 65.5424L162.587 69.6876C162.977 69.8401 163.392 69.918 163.81 69.9173C164.597 69.9187 165.36 69.6444 165.966 69.1419C166.573 68.6395 166.984 67.9405 167.13 67.1659C167.276 66.3914 167.147 65.5901 166.766 64.9008C166.384 64.2115 165.774 63.6776 165.04 63.3915H165.04Z" fill="white"/>
<path d="M151.989 70.9824L151.151 70.6552L142.961 67.4532L135.479 64.5297L122.504 59.4587L116.228 57.0051C115.816 56.8433 115.375 56.7646 114.932 56.7735C114.488 56.7824 114.051 56.8788 113.645 57.0571C113.239 57.2354 112.872 57.4921 112.565 57.8125C112.258 58.133 112.017 58.5109 111.856 58.9247C111.695 59.3384 111.617 59.7799 111.627 60.2238C111.636 60.6678 111.733 61.1056 111.912 61.512C112.09 61.9185 112.347 62.2857 112.667 62.5927C112.988 62.8997 113.365 63.1404 113.779 63.3011L116.92 64.5297L132.592 70.6552L134.204 71.2852L134.371 71.3513H152.93L151.989 70.9824Z" fill="white"/>
<path d="M120.287 71.2851L118.675 70.6552L111.937 68.0205C111.466 67.8358 110.96 67.7596 110.456 67.7976C109.952 67.8355 109.463 67.9866 109.025 68.2397C108.587 68.4927 108.211 68.8412 107.926 69.2594C107.641 69.6775 107.454 70.1546 107.378 70.6552C107.344 70.8634 107.332 71.0744 107.34 71.2851C107.339 71.3072 107.34 71.3293 107.343 71.3512H120.457L120.287 71.2851Z" fill="white"/>
<path d="M134.204 71.2851L132.592 70.6551H107.378C107.344 70.8633 107.332 71.0743 107.34 71.2851H103.893L103.934 71.3512H134.371L134.204 71.2851ZM134.204 71.2851H103.893L103.934 71.3512H134.371L134.204 71.2851ZM134.204 71.2851H103.893L103.934 71.3512H134.371L134.204 71.2851ZM134.371 71.3512L134.204 71.2851H103.893L103.934 71.3512H134.371ZM73.5567 141.046C72.4569 141.045 71.4025 140.606 70.6248 139.827C69.8471 139.048 69.4094 137.992 69.4077 136.891V56.3646C69.4087 55.2624 69.846 54.2056 70.6238 53.4259C71.4016 52.6463 72.4563 52.2074 73.5567 52.2055H80.0235V51.5094H73.5567C72.2722 51.5118 71.041 52.0242 70.133 52.9343C69.225 53.8444 68.7142 55.078 68.7128 56.3646V136.891C68.7139 137.821 68.982 138.732 69.4854 139.515C69.9887 140.297 70.706 140.918 71.5517 141.304H132.772C132.717 141.22 132.661 141.133 132.606 141.046H73.5567ZM174.899 72.1726C174.447 71.693 173.903 71.3109 173.299 71.05C172.695 70.789 172.043 70.6546 171.386 70.6551H104.32L100.567 64.6758L100.477 64.5296L97.2938 59.4587L93.7285 53.7786C93.2915 53.0848 92.6864 52.5129 91.9695 52.1161C91.2527 51.7194 90.4472 51.5107 89.6282 51.5094H73.5567C72.2722 51.5118 71.041 52.0242 70.133 52.9343C69.225 53.8444 68.7142 55.078 68.7128 56.3646V136.891C68.7139 137.821 68.982 138.732 69.4854 139.515C69.9887 140.297 70.706 140.918 71.5517 141.304C72.1805 141.594 72.8646 141.743 73.5567 141.742H171.386C172.079 141.743 172.764 141.594 173.394 141.304C174.24 140.918 174.957 140.297 175.46 139.515C175.964 138.732 176.232 137.821 176.233 136.891V75.5103C176.234 74.2671 175.756 73.0715 174.899 72.1726V72.1726ZM175.538 136.891C175.536 137.993 175.098 139.049 174.32 139.828C173.541 140.607 172.486 141.045 171.386 141.046H73.5567C72.4569 141.045 71.4025 140.606 70.6248 139.827C69.8471 139.048 69.4094 137.992 69.4077 136.891V56.3646C69.4087 55.2624 69.846 54.2056 70.6238 53.4259C71.4016 52.6463 72.4563 52.2074 73.5567 52.2055H89.6282C90.3306 52.2036 91.022 52.3813 91.6367 52.7217C92.2515 53.0622 92.7693 53.5541 93.1412 54.151L96.4702 59.4586L99.6533 64.5296L100.251 65.4832L103.893 71.285L103.934 71.3512H171.386C172.487 71.3521 173.542 71.7906 174.321 72.5704C175.099 73.3501 175.537 74.4075 175.538 75.5102V136.891ZM134.204 71.2851H103.893L103.934 71.3512H134.371L134.204 71.2851ZM134.204 71.2851H103.893L103.934 71.3512H134.371L134.204 71.2851ZM134.204 71.2851H103.893L103.934 71.3512H134.371L134.204 71.2851ZM134.204 71.2851L132.592 70.6551H104.32L100.567 64.6758L100.251 65.4832L103.893 71.2851L103.934 71.3512H134.371L134.204 71.2851Z" fill="#3F3D56"/>
<path d="M54.5309 100.156L52.5405 104.324L35.5423 98.6179L38.4797 92.4663L54.5309 100.156Z" fill="#FFDAB8"/>
<path d="M49.745 107.118L53.7684 98.693L58.8215 101.114L52.566 114.213L52.1797 114.028C50.942 113.435 49.9901 112.374 49.5335 111.078C49.077 109.782 49.153 108.358 49.745 107.118V107.118Z" fill="#2F2E41"/>
<path d="M58.5378 137.377L53.9277 137.221L53.7334 119.247L59.1379 119.566L58.5378 137.377Z" fill="#FFDAB8"/>
<path d="M50.2509 135.776L59.5702 136.091L59.3812 141.698L44.8918 141.208L44.9063 140.779C44.9526 139.406 45.5417 138.107 46.544 137.169C47.5463 136.231 48.8797 135.73 50.2509 135.776Z" fill="#2F2E41"/>
<path d="M65.9621 62.1526C65.9621 62.1526 51.8523 58.5725 45.4558 63.8485L41.8813 74.2121L27.5834 94.5624L48.2778 106.999L52.0404 97.5773L43.0101 93.055L53.9217 83.6335L52.0404 133.379L59.1894 134.509C59.1894 134.509 74.9924 73.0815 65.9621 62.1526Z" fill="#2F2E41"/>
<path d="M44.5555 65.3813L44.7275 65.0751C46.5403 61.8472 46.2466 56.5907 45.681 52.7496C45.2072 49.5323 45.2215 43.8625 45.3168 39.6725C45.3404 38.2583 45.844 36.8942 46.7447 35.8048C47.6455 34.7154 48.8897 33.9656 50.2726 33.6789C54.5649 32.7842 59.8345 32.5947 62.5937 32.5612L62.596 32.7496L62.5937 32.5612C63.3433 32.5582 64.0643 32.8496 64.6019 33.3729C65.1395 33.8962 65.4509 34.6098 65.4693 35.3604C65.5532 39.8724 65.5272 48.1003 64.4092 52.5148C62.75 59.0667 65.3445 63.5191 65.371 63.5633L65.5275 63.8253L44.5555 65.3813Z" fill="#005FED"/>
<path d="M37.2975 83.4508C37.7568 83.2304 38.1623 82.912 38.4854 82.5177C38.8085 82.1234 39.0414 81.663 39.1676 81.1689C39.2939 80.6747 39.3104 80.1589 39.2161 79.6576C39.1217 79.1564 38.9188 78.6819 38.6216 78.2677L46.5846 43.875H40.5644L33.5366 77.5899C32.875 78.1361 32.4364 78.9064 32.304 79.7549C32.1715 80.6033 32.3544 81.471 32.818 82.1934C33.2815 82.9158 33.9936 83.4428 34.8192 83.6746C35.6448 83.9063 36.5266 83.8267 37.2975 83.4508Z" fill="#FFDAB8"/>
<path d="M85.7159 49.5965L72.427 37.006L68.8354 42.0422L77.8144 49.9562L66.0389 59.3221C65.9539 59.3163 65.8692 59.3091 65.7825 59.3091C65.0579 59.3084 64.3484 59.5168 63.739 59.9094C63.1295 60.302 62.6459 60.8621 62.3459 61.5228C62.046 62.1834 61.9424 62.9167 62.0476 63.6347C62.1529 64.3528 62.4624 65.0253 62.9392 65.5718C63.416 66.1183 64.04 66.5156 64.7363 66.7162C65.4327 66.9169 66.1721 66.9123 66.8659 66.7031C67.5598 66.4939 68.1788 66.0889 68.6488 65.5366C69.1189 64.9842 69.4201 64.308 69.5165 63.5886L69.5537 63.6259L85.7159 49.5965Z" fill="#FFDAB8"/>
<path d="M49.4273 34.121C49.4273 34.121 41.1288 32.7577 40.3763 39.1643C39.6238 45.5709 39.2475 45.5709 39.2475 45.5709C39.2475 45.5709 45.2677 44.4404 46.7727 45.9478C48.2778 47.4552 49.4273 34.121 49.4273 34.121Z" fill="#005FED"/>
<path d="M61.8232 33.1345C61.8232 33.1345 68.5959 32.004 71.606 35.0188C74.6161 38.0337 76.1212 38.7874 76.1212 38.7874C76.1212 38.7874 69.3485 42.556 71.9823 45.9477C71.9823 45.9477 64.8333 42.556 63.7045 43.6866C62.5758 44.8171 61.8232 33.1345 61.8232 33.1345Z" fill="#005FED"/>
<path d="M55.8829 11.2551C53.7466 9.54617 53.1852 6.24804 54.4247 3.80724C55.6642 1.36644 58.4666 -0.104068 61.1985 0.00574926C63.9303 0.115566 66.5045 1.68647 68.0872 3.9194C70.3104 7.05608 70.777 11.4156 73.7332 13.8713C76.4033 16.0892 80.2283 16.0257 83.6927 15.8493C84.8605 15.7898 86.0661 15.7208 87.114 15.2012C88.1619 14.6815 89.0181 13.5854 88.883 12.4221C89.7534 13.802 89.2484 15.7368 88.0808 16.8754C86.9131 18.014 85.2504 18.491 83.6319 18.681C80.7764 18.9816 77.8919 18.532 75.2626 17.3766C72.6334 16.2211 70.3499 14.3996 68.6372 12.0915C67.4318 10.426 66.5015 8.48657 64.8475 7.26715C63.1934 6.04773 60.4355 5.96285 59.4201 7.75092C58.9178 8.63529 58.9671 9.74459 58.5053 10.6508C58.0435 11.5569 56.5437 12.0455 56.099 11.1308" fill="#2F2E41"/>
<path d="M55.5563 29.4287C61.3137 29.4287 65.981 24.754 65.981 18.9875C65.981 13.221 61.3137 8.54626 55.5563 8.54626C49.7989 8.54626 45.1316 13.221 45.1316 18.9875C45.1316 24.754 49.7989 29.4287 55.5563 29.4287Z" fill="#2F2E41"/>
<path d="M55.4934 30.2461C60.207 30.2461 64.0281 26.419 64.0281 21.6979C64.0281 16.9768 60.207 13.1497 55.4934 13.1497C50.7798 13.1497 46.9587 16.9768 46.9587 21.6979C46.9587 26.419 50.7798 30.2461 55.4934 30.2461Z" fill="#FFDAB8"/>
<path d="M47.7113 15.4198C48.8713 15.6739 48.4917 17.6227 49.4083 18.3787C50.2351 19.0606 51.4258 18.3593 52.4664 18.1054C53.7802 17.7849 55.1553 18.2544 56.3683 18.853C57.5812 19.4516 58.7508 20.1944 60.074 20.4733C61.3973 20.7522 62.966 20.4379 63.7078 19.3055C64.4171 18.2228 64.156 16.7627 63.6011 15.593C62.9112 14.1387 61.8284 12.907 60.4755 12.0375C59.1225 11.1679 57.5535 10.6951 55.9461 10.6728C54.3387 10.6505 52.7572 11.0795 51.3807 11.9112C50.0042 12.7429 48.8878 13.9441 48.1579 15.3787" fill="#2F2E41"/>
<path d="M248.803 141.652C248.803 141.744 248.766 141.833 248.701 141.898C248.636 141.963 248.547 142 248.455 142H0.34749C0.25533 142 0.166944 141.963 0.101777 141.898C0.0366102 141.833 0 141.744 0 141.652C0 141.56 0.0366102 141.471 0.101777 141.406C0.166944 141.341 0.25533 141.304 0.34749 141.304H248.455C248.547 141.304 248.636 141.341 248.701 141.406C248.766 141.471 248.803 141.56 248.803 141.652V141.652Z" fill="#3F3D56"/>
</g>
<defs>
<clipPath id="clip0">
<rect width="270" height="142" fill="white"/>
</clipPath>
</defs>
</svg>
